<svg width="900" height="560" viewBox="0 0 900 560" fill="none" xmlns="http://www.w3.org/2000/svg">
  <rect width="900" height="560" fill="#DDD4C8"/>
  <rect x="24" y="24" width="852" height="512" rx="28" fill="url(#desk)"/>
  <rect x="88" y="214" width="214" height="168" rx="18" fill="#FBF5EE" transform="rotate(-6 88 214)"/>
  <rect x="108" y="236" width="174" height="18" rx="7" fill="#A46A4E" fill-opacity="0.3" transform="rotate(-6 108 236)"/>
  <rect x="108" y="270" width="150" height="14" rx="7" fill="#A46A4E" fill-opacity="0.24" transform="rotate(-6 108 270)"/>
  <rect x="134" y="318" width="108" height="40" rx="10" fill="#B94A34" fill-opacity="0.82" transform="rotate(-6 134 318)"/>
  <rect x="374" y="92" width="190" height="156" rx="18" fill="#FFF9F2" transform="rotate(3 374 92)"/>
  <rect x="396" y="118" width="150" height="18" rx="7" fill="#A56C4F" fill-opacity="0.28" transform="rotate(3 396 118)"/>
  <rect x="396" y="150" width="132" height="14" rx="7" fill="#A56C4F" fill-opacity="0.22" transform="rotate(3 396 150)"/>
  <rect x="424" y="192" width="92" height="36" rx="10" fill="#D8C0A9" transform="rotate(3 424 192)"/>
  <rect x="610" y="174" width="208" height="186" rx="20" fill="#FFF6EC" transform="rotate(7 610 174)"/>
  <rect x="636" y="202" width="160" height="18" rx="7" fill="#A56C4F" fill-opacity="0.28" transform="rotate(7 636 202)"/>
  <rect x="636" y="236" width="144" height="14" rx="7" fill="#A56C4F" fill-opacity="0.22" transform="rotate(7 636 236)"/>
  <rect x="664" y="284" width="104" height="44" rx="12" fill="#C74A36" fill-opacity="0.84" transform="rotate(7 664 284)"/>
  <circle cx="168" cy="164" r="44" fill="#B24534" fill-opacity="0.14"/>
  <circle cx="168" cy="164" r="24" fill="#B24534" fill-opacity="0.22"/>
  <circle cx="770" cy="100" r="50" fill="#B24534" fill-opacity="0.12"/>
  <path d="M300 420C398 374 510 372 610 416" stroke="#9E6E55" stroke-width="6" stroke-linecap="round"/>
  <path d="M294 458C396 424 520 424 640 462" stroke="#C29A81" stroke-width="3" stroke-dasharray="8 10" stroke-linecap="round"/>
  <circle cx="110" cy="194" r="12" fill="#D0AF88"/>
  <circle cx="542" cy="84" r="12" fill="#D0AF88"/>
  <circle cx="792" cy="152" r="12" fill="#D0AF88"/>
  <rect x="154" y="300" width="30" height="30" rx="6" stroke="#B64A37" stroke-opacity="0.5" stroke-width="2"/>
  <rect x="452" y="144" width="30" height="30" rx="6" stroke="#B64A37" stroke-opacity="0.5" stroke-width="2"/>
  <rect x="700" y="264" width="30" height="30" rx="6" stroke="#B64A37" stroke-opacity="0.5" stroke-width="2"/>
  <defs>
    <linearGradient id="desk" x1="54" y1="44" x2="850" y2="526" gradientUnits="userSpaceOnUse">
      <stop stop-color="#ECE3D6"/>
      <stop offset="1" stop-color="#D4C7B7"/>
    </linearGradient>
  </defs>
</svg>
