<svg width="900" height="560" viewBox="0 0 900 560" fill="none" xmlns="http://www.w3.org/2000/svg">
  <rect width="900" height="560" fill="#1B1115"/>
  <rect x="24" y="24" width="852" height="512" rx="28" fill="url(#bg)"/>
  <rect x="68" y="106" width="224" height="178" rx="18" transform="rotate(-5 68 106)" fill="#431C23" stroke="#A66A63" stroke-width="3"/>
  <rect x="88" y="126" width="184" height="138" rx="12" fill="#7E3338"/>
  <circle cx="124" cy="146" r="18" fill="#E8C7A0" fill-opacity="0.8"/>
  <rect x="158" y="145" width="86" height="10" rx="5" fill="#E8C7A0" fill-opacity="0.5"/>
  <rect x="158" y="166" width="72" height="8" rx="4" fill="#E8C7A0" fill-opacity="0.3"/>
  <rect x="150" y="196" width="92" height="46" rx="10" fill="#C54439" fill-opacity="0.85"/>
  <rect x="374" y="60" width="190" height="138" rx="16" fill="#F4E9DD" transform="rotate(4 374 60)"/>
  <rect x="392" y="78" width="154" height="20" rx="6" fill="#B74739" fill-opacity="0.88" transform="rotate(4 392 78)"/>
  <rect x="402" y="118" width="132" height="12" rx="6" fill="#8D7A73" fill-opacity="0.45" transform="rotate(4 402 118)"/>
  <rect x="402" y="144" width="118" height="12" rx="6" fill="#8D7A73" fill-opacity="0.32" transform="rotate(4 402 144)"/>
  <rect x="418" y="184" width="102" height="42" rx="10" fill="#D1B8A3" transform="rotate(4 418 184)"/>
  <rect x="608" y="224" width="190" height="224" rx="20" fill="#F6EEE6" transform="rotate(-7 608 224)"/>
  <rect x="632" y="248" width="132" height="12" rx="6" fill="#8C7A73" fill-opacity="0.42" transform="rotate(-7 632 248)"/>
  <rect x="632" y="274" width="118" height="12" rx="6" fill="#8C7A73" fill-opacity="0.32" transform="rotate(-7 632 274)"/>
  <rect x="648" y="314" width="110" height="72" rx="12" fill="#C84437" fill-opacity="0.86" transform="rotate(-7 648 314)"/>
  <path d="M322 364C390 314 482 306 564 332C648 358 728 370 820 344" stroke="#7D5462" stroke-width="5" stroke-linecap="round"/>
  <path d="M334 404C396 382 460 382 534 406C596 426 676 430 760 404" stroke="#A67986" stroke-width="3" stroke-dasharray="8 10" stroke-linecap="round"/>
  <circle cx="118" cy="86" r="12" fill="#D2B187"/>
  <circle cx="514" cy="52" r="12" fill="#D2B187"/>
  <circle cx="792" cy="216" r="12" fill="#D2B187"/>
  <rect x="174" y="160" width="28" height="28" rx="6" stroke="#F6EBDD" stroke-opacity="0.45" stroke-width="2"/>
  <rect x="450" y="104" width="30" height="30" rx="6" stroke="#B44339" stroke-opacity="0.55" stroke-width="2"/>
  <rect x="690" y="344" width="32" height="32" rx="6" stroke="#B44339" stroke-opacity="0.55" stroke-width="2"/>
  <defs>
    <linearGradient id="bg" x1="54" y1="44" x2="846" y2="520" gradientUnits="userSpaceOnUse">
      <stop stop-color="#2A171D"/>
      <stop offset="1" stop-color="#3B2027"/>
    </linearGradient>
  </defs>
</svg>
