<svg xmlns="http://www.w3.org/2000/svg" width="900" height="900" viewBox="0 0 900 900" fill="none">
  <rect width="900" height="900" rx="56" fill="#efe4cf"/>
  <rect x="40" y="40" width="820" height="820" rx="44" fill="#f7f0e2"/>
  <ellipse cx="450" cy="450" rx="305" ry="215" fill="#7a4f2b"/>
  <ellipse cx="450" cy="450" rx="282" ry="194" fill="#9a6a3d"/>
  <ellipse cx="450" cy="450" rx="222" ry="142" fill="#cfaa78"/>
  <ellipse cx="450" cy="450" rx="186" ry="112" fill="#f4e7cf"/>
  <ellipse cx="450" cy="450" rx="138" ry="76" fill="#e4d3b7"/>
  <ellipse cx="450" cy="450" rx="118" ry="60" fill="#f8f2e6"/>
  <path d="M248 320C301 286 372 267 450 267C528 267 599 286 652 320" stroke="#e8cf9a" stroke-width="12" stroke-linecap="round"/>
  <path d="M238 582C292 618 368 639 450 639C532 639 608 618 662 582" stroke="#6d4527" stroke-opacity="0.4" stroke-width="12" stroke-linecap="round"/>
  <ellipse cx="450" cy="450" rx="70" ry="34" fill="#16342d" fill-opacity="0.92"/>
  <text x="450" y="460" text-anchor="middle" fill="#efe6d1" font-size="28" font-family="Segoe UI, Arial, sans-serif" font-weight="700">МИР</text>
  <g fill="#2e7a65">
    <rect x="220" y="222" width="58" height="88" rx="24" transform="rotate(-28 220 222)"/>
    <rect x="318" y="170" width="58" height="88" rx="24" transform="rotate(-15 318 170)"/>
    <rect x="421" y="150" width="58" height="88" rx="24"/>
    <rect x="524" y="170" width="58" height="88" rx="24" transform="rotate(15 524 170)"/>
    <rect x="622" y="222" width="58" height="88" rx="24" transform="rotate(28 622 222)"/>
    <rect x="650" y="612" width="58" height="88" rx="24" transform="rotate(152 650 612)"/>
    <rect x="552" y="664" width="58" height="88" rx="24" transform="rotate(165 552 664)"/>
    <rect x="421" y="676" width="58" height="88" rx="24"/>
    <rect x="290" y="664" width="58" height="88" rx="24" transform="rotate(-165 290 664)"/>
    <rect x="192" y="612" width="58" height="88" rx="24" transform="rotate(-152 192 612)"/>
  </g>
  <g fill="#c9872c">
    <circle cx="240" cy="450" r="14"/>
    <circle cx="660" cy="450" r="14"/>
    <circle cx="450" cy="278" r="14"/>
    <circle cx="450" cy="622" r="14"/>
  </g>
</svg>
